{
	"patcher" : 	{
		"fileversion" : 1,
		"appversion" : 		{
			"major" : 8,
			"minor" : 1,
			"revision" : 0,
			"architecture" : "x64",
			"modernui" : 1
		}
,
		"classnamespace" : "box",
		"rect" : [ 304.0, 281.0, 618.0, 480.0 ],
		"bglocked" : 0,
		"openinpresentation" : 0,
		"default_fontsize" : 12.0,
		"default_fontface" : 0,
		"default_fontname" : "Arial",
		"gridonopen" : 1,
		"gridsize" : [ 15.0, 15.0 ],
		"gridsnaponopen" : 1,
		"objectsnaponopen" : 1,
		"statusbarvisible" : 2,
		"toolbarvisible" : 1,
		"lefttoolbarpinned" : 0,
		"toptoolbarpinned" : 0,
		"righttoolbarpinned" : 0,
		"bottomtoolbarpinned" : 0,
		"toolbars_unpinned_last_save" : 0,
		"tallnewobj" : 0,
		"boxanimatetime" : 200,
		"enablehscroll" : 1,
		"enablevscroll" : 1,
		"devicewidth" : 0.0,
		"description" : "",
		"digest" : "",
		"tags" : "",
		"style" : "",
		"subpatcher_template" : "",
		"boxes" : [ 			{
				"box" : 				{
					"bubble" : 1,
					"bubbleside" : 0,
					"id" : "obj-1",
					"maxclass" : "comment",
					"numinlets" : 1,
					"numoutlets" : 0,
					"patching_rect" : [ 164.0, 381.0, 33.0, 39.0 ],
					"text" : "etc.."
				}

			}
, 			{
				"box" : 				{
					"bubble" : 1,
					"bubbleside" : 0,
					"id" : "obj-7",
					"maxclass" : "comment",
					"numinlets" : 1,
					"numoutlets" : 0,
					"patching_rect" : [ 501.333374000000049, 394.0, 33.0, 39.0 ],
					"text" : "etc.."
				}

			}
, 			{
				"box" : 				{
					"bubble" : 1,
					"bubbleside" : 0,
					"id" : "obj-4",
					"linecount" : 2,
					"maxclass" : "comment",
					"numinlets" : 1,
					"numoutlets" : 0,
					"patching_rect" : [ 424.5, 394.0, 73.0, 52.0 ],
					"text" : "grainCount for layer 2"
				}

			}
, 			{
				"box" : 				{
					"bubble" : 1,
					"bubbleside" : 0,
					"id" : "obj-3",
					"linecount" : 2,
					"maxclass" : "comment",
					"numinlets" : 1,
					"numoutlets" : 0,
					"patching_rect" : [ 352.0, 394.0, 73.0, 52.0 ],
					"text" : "grainCount for layer 1"
				}

			}
, 			{
				"box" : 				{
					"calccount" : 32,
					"id" : "obj-72",
					"maxclass" : "scope~",
					"numinlets" : 2,
					"numoutlets" : 0,
					"patching_rect" : [ 87.5, 338.0, 57.0, 42.0 ]
				}

			}
, 			{
				"box" : 				{
					"calccount" : 32,
					"id" : "obj-71",
					"maxclass" : "scope~",
					"numinlets" : 2,
					"numoutlets" : 0,
					"patching_rect" : [ 28.0, 338.0, 57.0, 42.0 ]
				}

			}
, 			{
				"box" : 				{
					"bubble" : 1,
					"id" : "obj-69",
					"maxclass" : "comment",
					"numinlets" : 1,
					"numoutlets" : 0,
					"patching_rect" : [ 443.0, 172.5, 102.0, 24.0 ],
					"text" : "layer IDs"
				}

			}
, 			{
				"box" : 				{
					"calccount" : 32,
					"id" : "obj-70",
					"maxclass" : "scope~",
					"numinlets" : 2,
					"numoutlets" : 0,
					"patching_rect" : [ 384.0, 172.5, 57.0, 42.0 ],
					"range" : [ -1.0, 5.0 ]
				}

			}
, 			{
				"box" : 				{
					"bubble" : 1,
					"id" : "obj-67",
					"linecount" : 2,
					"maxclass" : "comment",
					"numinlets" : 1,
					"numoutlets" : 0,
					"patching_rect" : [ 268.0, 175.0, 94.0, 37.0 ],
					"text" : "grainCounts for all layer"
				}

			}
, 			{
				"box" : 				{
					"calccount" : 32,
					"id" : "obj-68",
					"maxclass" : "scope~",
					"numinlets" : 2,
					"numoutlets" : 0,
					"patching_rect" : [ 209.0, 175.0, 57.0, 42.0 ],
					"range" : [ -1.0, 200.0 ]
				}

			}
, 			{
				"box" : 				{
					"bubble" : 1,
					"id" : "obj-64",
					"linecount" : 2,
					"maxclass" : "comment",
					"numinlets" : 1,
					"numoutlets" : 0,
					"patching_rect" : [ 95.0, 175.0, 102.0, 37.0 ],
					"text" : "mixed clock for all layers"
				}

			}
, 			{
				"box" : 				{
					"calccount" : 32,
					"id" : "obj-65",
					"maxclass" : "scope~",
					"numinlets" : 2,
					"numoutlets" : 0,
					"patching_rect" : [ 37.0, 175.0, 57.0, 42.0 ]
				}

			}
, 			{
				"box" : 				{
					"bubble" : 1,
					"bubbleside" : 0,
					"id" : "obj-63",
					"linecount" : 2,
					"maxclass" : "comment",
					"numinlets" : 1,
					"numoutlets" : 0,
					"patching_rect" : [ 91.0, 381.0, 59.0, 52.0 ],
					"text" : "clock for layer 2"
				}

			}
, 			{
				"box" : 				{
					"bubble" : 1,
					"bubbleside" : 0,
					"id" : "obj-60",
					"linecount" : 2,
					"maxclass" : "comment",
					"numinlets" : 1,
					"numoutlets" : 0,
					"patching_rect" : [ 28.0, 381.0, 59.0, 52.0 ],
					"text" : "clock for layer 1"
				}

			}
, 			{
				"box" : 				{
					"id" : "obj-55",
					"maxclass" : "toggle",
					"numinlets" : 1,
					"numoutlets" : 1,
					"outlettype" : [ "int" ],
					"parameter_enable" : 0,
					"patching_rect" : [ 265.0, 22.0, 24.0, 24.0 ]
				}

			}
, 			{
				"box" : 				{
					"id" : "obj-56",
					"maxclass" : "newobj",
					"numinlets" : 2,
					"numoutlets" : 1,
					"outlettype" : [ "float" ],
					"patching_rect" : [ 265.0, 50.0, 42.0, 22.0 ],
					"text" : "* 100."
				}

			}
, 			{
				"box" : 				{
					"format" : 6,
					"id" : "obj-57",
					"maxclass" : "flonum",
					"numinlets" : 1,
					"numoutlets" : 2,
					"outlettype" : [ "", "bang" ],
					"parameter_enable" : 0,
					"patching_rect" : [ 265.0, 76.0, 50.0, 22.0 ]
				}

			}
, 			{
				"box" : 				{
					"id" : "obj-58",
					"maxclass" : "message",
					"numinlets" : 2,
					"numoutlets" : 1,
					"outlettype" : [ "" ],
					"patching_rect" : [ 265.0, 103.0, 71.0, 22.0 ],
					"text" : "target 4, $1"
				}

			}
, 			{
				"box" : 				{
					"id" : "obj-50",
					"maxclass" : "newobj",
					"numinlets" : 2,
					"numoutlets" : 1,
					"outlettype" : [ "signal" ],
					"patching_rect" : [ 552.0, 337.0, 57.0, 22.0 ],
					"text" : "sah~ 0.5"
				}

			}
, 			{
				"box" : 				{
					"id" : "obj-49",
					"maxclass" : "newobj",
					"numinlets" : 2,
					"numoutlets" : 1,
					"outlettype" : [ "signal" ],
					"patching_rect" : [ 489.833374000000049, 337.0, 57.0, 22.0 ],
					"text" : "sah~ 0.5"
				}

			}
, 			{
				"box" : 				{
					"id" : "obj-48",
					"maxclass" : "newobj",
					"numinlets" : 2,
					"numoutlets" : 1,
					"outlettype" : [ "signal" ],
					"patching_rect" : [ 427.666655999999989, 337.0, 57.0, 22.0 ],
					"text" : "sah~ 0.5"
				}

			}
, 			{
				"box" : 				{
					"id" : "obj-36",
					"maxclass" : "newobj",
					"numinlets" : 2,
					"numoutlets" : 1,
					"outlettype" : [ "signal" ],
					"patching_rect" : [ 28.0, 258.0, 57.0, 22.0 ],
					"text" : "sah~ 0.5"
				}

			}
, 			{
				"box" : 				{
					"id" : "obj-41",
					"maxclass" : "newobj",
					"numinlets" : 2,
					"numoutlets" : 4,
					"outlettype" : [ "signal", "signal", "signal", "signal" ],
					"patching_rect" : [ 28.0, 287.0, 197.5, 22.0 ],
					"text" : "gate~ 4 1"
				}

			}
, 			{
				"box" : 				{
					"id" : "obj-30",
					"maxclass" : "newobj",
					"numinlets" : 2,
					"numoutlets" : 1,
					"outlettype" : [ "signal" ],
					"patching_rect" : [ 365.5, 337.0, 57.0, 22.0 ],
					"text" : "sah~ 0.5"
				}

			}
, 			{
				"box" : 				{
					"id" : "obj-25",
					"maxclass" : "newobj",
					"numinlets" : 2,
					"numoutlets" : 1,
					"outlettype" : [ "signal" ],
					"patching_rect" : [ 365.5, 258.0, 57.0, 22.0 ],
					"text" : "sah~ 0.5"
				}

			}
, 			{
				"box" : 				{
					"fontface" : 0,
					"fontname" : "Arial",
					"fontsize" : 12.0,
					"id" : "obj-17",
					"maxclass" : "number~",
					"mode" : 2,
					"numinlets" : 2,
					"numoutlets" : 2,
					"outlettype" : [ "signal", "float" ],
					"patching_rect" : [ 552.0, 365.0, 56.0, 22.0 ],
					"sig" : 0.0
				}

			}
, 			{
				"box" : 				{
					"fontface" : 0,
					"fontname" : "Arial",
					"fontsize" : 12.0,
					"id" : "obj-16",
					"maxclass" : "number~",
					"mode" : 2,
					"numinlets" : 2,
					"numoutlets" : 2,
					"outlettype" : [ "signal", "float" ],
					"patching_rect" : [ 489.833374000000049, 365.0, 56.0, 22.0 ],
					"sig" : 0.0
				}

			}
, 			{
				"box" : 				{
					"fontface" : 0,
					"fontname" : "Arial",
					"fontsize" : 12.0,
					"id" : "obj-15",
					"maxclass" : "number~",
					"mode" : 2,
					"numinlets" : 2,
					"numoutlets" : 2,
					"outlettype" : [ "signal", "float" ],
					"patching_rect" : [ 427.666655999999989, 365.0, 56.0, 22.0 ],
					"sig" : 0.0
				}

			}
, 			{
				"box" : 				{
					"fontface" : 0,
					"fontname" : "Arial",
					"fontsize" : 12.0,
					"id" : "obj-14",
					"maxclass" : "number~",
					"mode" : 2,
					"numinlets" : 2,
					"numoutlets" : 2,
					"outlettype" : [ "signal", "float" ],
					"patching_rect" : [ 365.5, 365.0, 56.0, 22.0 ],
					"sig" : 0.0
				}

			}
, 			{
				"box" : 				{
					"id" : "obj-9",
					"maxclass" : "newobj",
					"numinlets" : 2,
					"numoutlets" : 4,
					"outlettype" : [ "signal", "signal", "signal", "signal" ],
					"patching_rect" : [ 365.5, 287.0, 205.5, 22.0 ],
					"text" : "gate~ 4 1"
				}

			}
, 			{
				"box" : 				{
					"id" : "obj-23",
					"maxclass" : "comment",
					"numinlets" : 1,
					"numoutlets" : 0,
					"patching_rect" : [ 323.5, 76.0, 61.0, 20.0 ],
					"text" : "grain rate"
				}

			}
, 			{
				"box" : 				{
					"id" : "obj-43",
					"maxclass" : "toggle",
					"numinlets" : 1,
					"numoutlets" : 1,
					"outlettype" : [ "int" ],
					"parameter_enable" : 0,
					"patching_rect" : [ 182.0, 22.0, 24.0, 24.0 ]
				}

			}
, 			{
				"box" : 				{
					"id" : "obj-44",
					"maxclass" : "newobj",
					"numinlets" : 2,
					"numoutlets" : 1,
					"outlettype" : [ "float" ],
					"patching_rect" : [ 182.0, 50.0, 49.0, 22.0 ],
					"text" : "* 20.13"
				}

			}
, 			{
				"box" : 				{
					"format" : 6,
					"id" : "obj-45",
					"maxclass" : "flonum",
					"numinlets" : 1,
					"numoutlets" : 2,
					"outlettype" : [ "", "bang" ],
					"parameter_enable" : 0,
					"patching_rect" : [ 182.0, 76.0, 50.0, 22.0 ]
				}

			}
, 			{
				"box" : 				{
					"id" : "obj-46",
					"maxclass" : "message",
					"numinlets" : 2,
					"numoutlets" : 1,
					"outlettype" : [ "" ],
					"patching_rect" : [ 182.0, 103.0, 71.0, 22.0 ],
					"text" : "target 3, $1"
				}

			}
, 			{
				"box" : 				{
					"id" : "obj-32",
					"maxclass" : "toggle",
					"numinlets" : 1,
					"numoutlets" : 1,
					"outlettype" : [ "int" ],
					"parameter_enable" : 0,
					"patching_rect" : [ 100.0, 22.0, 24.0, 24.0 ]
				}

			}
, 			{
				"box" : 				{
					"id" : "obj-35",
					"maxclass" : "newobj",
					"numinlets" : 2,
					"numoutlets" : 1,
					"outlettype" : [ "float" ],
					"patching_rect" : [ 100.0, 50.0, 35.0, 22.0 ],
					"text" : "* 7.5"
				}

			}
, 			{
				"box" : 				{
					"id" : "obj-31",
					"maxclass" : "toggle",
					"numinlets" : 1,
					"numoutlets" : 1,
					"outlettype" : [ "int" ],
					"parameter_enable" : 0,
					"patching_rect" : [ 20.0, 22.0, 24.0, 24.0 ]
				}

			}
, 			{
				"box" : 				{
					"id" : "obj-29",
					"maxclass" : "newobj",
					"numinlets" : 2,
					"numoutlets" : 1,
					"outlettype" : [ "float" ],
					"patching_rect" : [ 20.0, 50.0, 29.5, 22.0 ],
					"text" : "* 1."
				}

			}
, 			{
				"box" : 				{
					"format" : 6,
					"id" : "obj-24",
					"maxclass" : "flonum",
					"numinlets" : 1,
					"numoutlets" : 2,
					"outlettype" : [ "", "bang" ],
					"parameter_enable" : 0,
					"patching_rect" : [ 100.0, 76.0, 50.0, 22.0 ]
				}

			}
, 			{
				"box" : 				{
					"format" : 6,
					"id" : "obj-22",
					"maxclass" : "flonum",
					"numinlets" : 1,
					"numoutlets" : 2,
					"outlettype" : [ "", "bang" ],
					"parameter_enable" : 0,
					"patching_rect" : [ 20.0, 76.0, 50.0, 22.0 ]
				}

			}
, 			{
				"box" : 				{
					"id" : "obj-19",
					"maxclass" : "message",
					"numinlets" : 2,
					"numoutlets" : 1,
					"outlettype" : [ "" ],
					"patching_rect" : [ 100.0, 103.0, 71.0, 22.0 ],
					"text" : "target 2, $1"
				}

			}
, 			{
				"box" : 				{
					"id" : "obj-10",
					"maxclass" : "message",
					"numinlets" : 2,
					"numoutlets" : 1,
					"outlettype" : [ "" ],
					"patching_rect" : [ 20.0, 103.0, 71.0, 22.0 ],
					"text" : "target 1, $1"
				}

			}
, 			{
				"box" : 				{
					"id" : "obj-6",
					"maxclass" : "newobj",
					"numinlets" : 1,
					"numoutlets" : 3,
					"outlettype" : [ "signal", "signal", "signal" ],
					"patching_rect" : [ 20.0, 142.0, 364.5, 22.0 ],
					"text" : "sagrada.multilayer~ 4"
				}

			}
 ],
		"lines" : [ 			{
				"patchline" : 				{
					"destination" : [ "obj-6", 0 ],
					"source" : [ "obj-10", 0 ]
				}

			}
, 			{
				"patchline" : 				{
					"destination" : [ "obj-6", 0 ],
					"midpoints" : [ 109.5, 133.0, 29.5, 133.0 ],
					"source" : [ "obj-19", 0 ]
				}

			}
, 			{
				"patchline" : 				{
					"destination" : [ "obj-10", 0 ],
					"source" : [ "obj-22", 0 ]
				}

			}
, 			{
				"patchline" : 				{
					"destination" : [ "obj-19", 0 ],
					"source" : [ "obj-24", 0 ]
				}

			}
, 			{
				"patchline" : 				{
					"destination" : [ "obj-9", 0 ],
					"source" : [ "obj-25", 0 ]
				}

			}
, 			{
				"patchline" : 				{
					"destination" : [ "obj-22", 0 ],
					"source" : [ "obj-29", 0 ]
				}

			}
, 			{
				"patchline" : 				{
					"destination" : [ "obj-14", 0 ],
					"source" : [ "obj-30", 0 ]
				}

			}
, 			{
				"patchline" : 				{
					"destination" : [ "obj-29", 0 ],
					"source" : [ "obj-31", 0 ]
				}

			}
, 			{
				"patchline" : 				{
					"destination" : [ "obj-35", 0 ],
					"source" : [ "obj-32", 0 ]
				}

			}
, 			{
				"patchline" : 				{
					"destination" : [ "obj-24", 0 ],
					"source" : [ "obj-35", 0 ]
				}

			}
, 			{
				"patchline" : 				{
					"destination" : [ "obj-41", 0 ],
					"source" : [ "obj-36", 0 ]
				}

			}
, 			{
				"patchline" : 				{
					"color" : [ 0.733591496944427, 0.511398255825043, 0.202150851488113, 1.0 ],
					"destination" : [ "obj-30", 1 ],
					"midpoints" : [ 37.5, 331.5, 413.0, 331.5 ],
					"order" : 0,
					"source" : [ "obj-41", 0 ]
				}

			}
, 			{
				"patchline" : 				{
					"color" : [ 0.733591496944427, 0.511398255825043, 0.202150851488113, 1.0 ],
					"destination" : [ "obj-48", 1 ],
					"midpoints" : [ 97.0, 327.5, 475.166655999999989, 327.5 ],
					"order" : 0,
					"source" : [ "obj-41", 1 ]
				}

			}
, 			{
				"patchline" : 				{
					"color" : [ 0.733591496944427, 0.511398255825043, 0.202150851488113, 1.0 ],
					"destination" : [ "obj-49", 1 ],
					"midpoints" : [ 156.5, 322.5, 537.333374000000049, 322.5 ],
					"source" : [ "obj-41", 2 ]
				}

			}
, 			{
				"patchline" : 				{
					"color" : [ 0.733591496944427, 0.511398255825043, 0.202150851488113, 1.0 ],
					"destination" : [ "obj-50", 1 ],
					"midpoints" : [ 216.0, 317.5, 599.5, 317.5 ],
					"source" : [ "obj-41", 3 ]
				}

			}
, 			{
				"patchline" : 				{
					"color" : [ 0.733591496944427, 0.511398255825043, 0.202150851488113, 1.0 ],
					"destination" : [ "obj-71", 0 ],
					"order" : 1,
					"source" : [ "obj-41", 0 ]
				}

			}
, 			{
				"patchline" : 				{
					"color" : [ 0.733591496944427, 0.511398255825043, 0.202150851488113, 1.0 ],
					"destination" : [ "obj-72", 0 ],
					"order" : 1,
					"source" : [ "obj-41", 1 ]
				}

			}
, 			{
				"patchline" : 				{
					"destination" : [ "obj-44", 0 ],
					"source" : [ "obj-43", 0 ]
				}

			}
, 			{
				"patchline" : 				{
					"destination" : [ "obj-45", 0 ],
					"source" : [ "obj-44", 0 ]
				}

			}
, 			{
				"patchline" : 				{
					"destination" : [ "obj-46", 0 ],
					"source" : [ "obj-45", 0 ]
				}

			}
, 			{
				"patchline" : 				{
					"destination" : [ "obj-6", 0 ],
					"midpoints" : [ 191.5, 133.0, 29.5, 133.0 ],
					"source" : [ "obj-46", 0 ]
				}

			}
, 			{
				"patchline" : 				{
					"destination" : [ "obj-15", 0 ],
					"source" : [ "obj-48", 0 ]
				}

			}
, 			{
				"patchline" : 				{
					"destination" : [ "obj-16", 0 ],
					"source" : [ "obj-49", 0 ]
				}

			}
, 			{
				"patchline" : 				{
					"destination" : [ "obj-17", 0 ],
					"source" : [ "obj-50", 0 ]
				}

			}
, 			{
				"patchline" : 				{
					"destination" : [ "obj-56", 0 ],
					"source" : [ "obj-55", 0 ]
				}

			}
, 			{
				"patchline" : 				{
					"destination" : [ "obj-57", 0 ],
					"source" : [ "obj-56", 0 ]
				}

			}
, 			{
				"patchline" : 				{
					"destination" : [ "obj-58", 0 ],
					"source" : [ "obj-57", 0 ]
				}

			}
, 			{
				"patchline" : 				{
					"destination" : [ "obj-6", 0 ],
					"midpoints" : [ 274.5, 133.0, 29.5, 133.0 ],
					"source" : [ "obj-58", 0 ]
				}

			}
, 			{
				"patchline" : 				{
					"color" : [ 0.0, 0.740957200527191, 0.0, 1.0 ],
					"destination" : [ "obj-25", 0 ],
					"order" : 1,
					"source" : [ "obj-6", 2 ]
				}

			}
, 			{
				"patchline" : 				{
					"color" : [ 0.0, 0.400192022323608, 0.727427363395691, 1.0 ],
					"destination" : [ "obj-25", 1 ],
					"midpoints" : [ 29.5, 230.5, 413.0, 230.5 ],
					"order" : 0,
					"source" : [ "obj-6", 0 ]
				}

			}
, 			{
				"patchline" : 				{
					"color" : [ 0.0, 0.740957200527191, 0.0, 1.0 ],
					"destination" : [ "obj-36", 0 ],
					"midpoints" : [ 375.0, 247.5, 37.5, 247.5 ],
					"order" : 2,
					"source" : [ "obj-6", 2 ]
				}

			}
, 			{
				"patchline" : 				{
					"color" : [ 0.0, 0.400192022323608, 0.727427363395691, 1.0 ],
					"destination" : [ "obj-36", 1 ],
					"midpoints" : [ 29.5, 239.5, 75.5, 239.5 ],
					"order" : 2,
					"source" : [ "obj-6", 0 ]
				}

			}
, 			{
				"patchline" : 				{
					"color" : [ 0.0, 0.400192022323608, 0.727427363395691, 1.0 ],
					"destination" : [ "obj-41", 1 ],
					"midpoints" : [ 29.5, 234.0, 216.0, 234.0 ],
					"order" : 1,
					"source" : [ "obj-6", 0 ]
				}

			}
, 			{
				"patchline" : 				{
					"destination" : [ "obj-65", 0 ],
					"midpoints" : [ 29.5, 169.5, 46.5, 169.5 ],
					"order" : 3,
					"source" : [ "obj-6", 0 ]
				}

			}
, 			{
				"patchline" : 				{
					"destination" : [ "obj-68", 0 ],
					"order" : 1,
					"source" : [ "obj-6", 1 ]
				}

			}
, 			{
				"patchline" : 				{
					"destination" : [ "obj-70", 0 ],
					"order" : 0,
					"source" : [ "obj-6", 2 ]
				}

			}
, 			{
				"patchline" : 				{
					"destination" : [ "obj-9", 1 ],
					"midpoints" : [ 202.25, 223.0, 561.5, 223.0 ],
					"order" : 0,
					"source" : [ "obj-6", 1 ]
				}

			}
, 			{
				"patchline" : 				{
					"destination" : [ "obj-30", 0 ],
					"source" : [ "obj-9", 0 ]
				}

			}
, 			{
				"patchline" : 				{
					"destination" : [ "obj-48", 0 ],
					"source" : [ "obj-9", 1 ]
				}

			}
, 			{
				"patchline" : 				{
					"destination" : [ "obj-49", 0 ],
					"source" : [ "obj-9", 2 ]
				}

			}
, 			{
				"patchline" : 				{
					"destination" : [ "obj-50", 0 ],
					"source" : [ "obj-9", 3 ]
				}

			}
 ],
		"parameters" : 		{
			"parameterbanks" : 			{

			}

		}
,
		"dependency_cache" : [ 			{
				"name" : "sagrada.multilayer~.maxpat",
				"bootpath" : "~/Documents/Max 7/Packages/Sagrada/patchers",
				"patcherrelativepath" : "../patchers",
				"type" : "JSON",
				"implicit" : 1
			}
, 			{
				"name" : "sagrada.multilayer~.p.maxpat",
				"bootpath" : "~/Documents/Max 7/Packages/Sagrada/patchers",
				"patcherrelativepath" : "../patchers",
				"type" : "JSON",
				"implicit" : 1
			}
 ],
		"autosave" : 0,
		"selectioncolor" : [ 0.929412, 0.929412, 0.352941, 1.0 ]
	}

}
